<svg width="67" height="150" viewBox="0 0 67 150" fill="none" xmlns="http://www.w3.org/2000/svg">
    <path d="M29 9H31.24L36 98H32.36L29 9Z" fill="#6F3E04" fill-opacity="0.6"/>
    <path d="M65 95L50.4983 150H16.9154L6 95H37.1415H65Z" fill="#D9D9D9"/>
    <path d="M46.9571 69.8814L35.7381 67.5976L41.4519 61.3591L46.9571 69.8814Z" fill="#0e8a11"/>
    <path d="M28.021 76.2434L16.802 73.9596L22.5158 67.7211L28.021 76.2434Z" fill="#0e8a11"/>
    <path d="M37.7596 41.2525L26.5406 38.9687L32.2544 32.7302L37.7596 41.2525Z" fill="#0e8a11"/>
    <path d="M20.2867 92.3644L9.06772 90.0806L14.7815 83.8421L20.2867 92.3644Z" fill="#0e8a11"/>
    <path d="M14.4483 84.5786L3.22934 82.2948L8.94311 76.0563L14.4483 84.5786Z" fill="#0e8a11"/>
    <path d="M36.6775 80.3723L25.4586 78.0885L31.1724 71.85L36.6775 80.3723Z" fill="#0e8a11"/>
    <path d="M36.6775 80.3723L25.4586 78.0885L31.1724 71.85L36.6775 80.3723Z" fill="#0e8a11"/>
    <path d="M48.5525 97.2184L37.3335 94.9346L43.0473 88.6961L48.5525 97.2184Z" fill="#0e8a11"/>
    <path d="M53.8305 91.4555L42.6115 89.1717L48.3253 82.9332L53.8305 91.4555Z" fill="#0e8a11"/>
    <path d="M47.9921 83.6697L36.7731 81.3859L42.4869 75.1474L47.9921 83.6697Z" fill="#0e8a11"/>
    <path d="M20.4466 81.7356L9.2277 79.4519L14.9415 73.2133L20.4466 81.7356Z" fill="#0e8a11"/>
    <path d="M20.4466 81.7356L9.2277 79.4519L14.9415 73.2133L20.4466 81.7356Z" fill="#0e8a11"/>
    <path d="M32.3215 98.5817L21.1025 96.2979L26.8163 90.0594L32.3215 98.5817Z" fill="#0e8a11"/>
    <path d="M37.5997 92.8188L26.3807 90.5351L32.0945 84.2965L37.5997 92.8188Z" fill="#0e8a11"/>
    <path d="M31.7612 85.0331L20.5422 82.7493L26.256 76.5108L31.7612 85.0331Z" fill="#0e8a11"/>
    <path d="M51.8263 77.6458L40.6073 75.362L46.3211 69.1235L51.8263 77.6458Z" fill="#0e8a11"/>
    <path d="M51.8263 77.6458L40.6073 75.362L46.3211 69.1235L51.8263 77.6458Z" fill="#0e8a11"/>
    <path d="M63.7012 94.4919L52.4822 92.2081L58.196 85.9696L63.7012 94.4919Z" fill="#0e8a11"/>
    <path d="M24.9349 65.3763L13.7159 63.0925L19.4297 56.854L24.9349 65.3763Z" fill="#0e8a11"/>
    <path d="M24.9349 65.3763L13.7159 63.0925L19.4297 56.854L24.9349 65.3763Z" fill="#0e8a11"/>
    <path d="M42.0879 76.4595L30.8689 74.1757L36.5827 67.9371L42.0879 76.4595Z" fill="#0e8a11"/>
    <path d="M36.2494 68.6737L25.0304 66.3899L30.7442 60.1514L36.2494 68.6737Z" fill="#0e8a11"/>
    <path d="M17.2005 72.3696L5.9816 70.0858L11.6954 63.8472L17.2005 72.3696Z" fill="#0e8a11"/>
    <path d="M32.8902 60.7929L21.6713 58.5091L27.3851 52.2705L32.8902 60.7929Z" fill="#0e8a11"/>
    <path d="M35.2707 33.7417L24.0518 31.458L29.7656 25.2194L35.2707 33.7417Z" fill="#0e8a11"/>
    <path d="M35.2707 33.7417L24.0518 31.458L29.7656 25.2194L35.2707 33.7417Z" fill="#0e8a11"/>
    <path d="M47.1456 50.5879L35.9266 48.3041L41.6404 42.0656L47.1456 50.5879Z" fill="#0e8a11"/>
    <path d="M52.4238 44.825L41.2048 42.5412L46.9186 36.3027L52.4238 44.825Z" fill="#0e8a11"/>
    <path d="M46.5853 37.0393L35.3663 34.7555L41.0801 28.5169L46.5853 37.0393Z" fill="#0e8a11"/>
    <path d="M36.899 13.5716L25.6801 11.2879L31.3939 5.04932L36.899 13.5716Z" fill="#0e8a11"/>
    <path d="M36.899 13.5716L25.6801 11.2879L31.3939 5.04932L36.899 13.5716Z" fill="#0e8a11"/>
    <path d="M48.7739 30.4177L37.555 28.1339L43.2687 21.8954L48.7739 30.4177Z" fill="#0e8a11"/>
    <path d="M54.052 24.6548L42.833 22.371L48.5468 16.1325L54.052 24.6548Z" fill="#0e8a11"/>
    <path d="M48.2136 16.8691L36.9947 14.5853L42.7084 8.34675L48.2136 16.8691Z" fill="#0e8a11"/>
    <path d="M38.4943 66.3175L27.2754 64.0337L32.9891 57.7951L38.4943 66.3175Z" fill="#0e8a11"/>
    <path d="M43.7724 60.5545L32.5534 58.2707L38.2672 52.0322L43.7724 60.5545Z" fill="#0e8a11"/>
    <path d="M37.934 52.7687L26.7151 50.485L32.4288 44.2464L37.934 52.7687Z" fill="#0e8a11"/>
    <path d="M29.1646 20.565L17.9457 18.2812L23.6594 12.0427L29.1646 20.565Z" fill="#0e8a11"/>
    <path d="M10.5 21L15.2631 30H5.73686L10.5 21Z" fill="#0e8a11"/>
    <path d="M10.5 21L15.2631 30H5.73686L10.5 21Z" fill="#0e8a11"/>
    <path d="M18.5 2L23.2631 11H13.7369L18.5 2Z" fill="#0e8a11"/>
    <path d="M13.5 10L18.2631 19H8.73686L13.5 10Z" fill="#0e8a11"/>
    <path d="M6.5 11L11.2631 20H1.73686L6.5 11Z" fill="#0e8a11"/>
    <path d="M43.7108 23.0754L32.4919 20.7916L38.2056 14.5531L43.7108 23.0754Z" fill="#0e8a11"/>
    <path d="M30.1852 10.8059L18.9662 8.5221L24.68 2.28358L30.1852 10.8059Z" fill="#0e8a11"/>
    <path d="M19.5 33L24.2631 41.25H14.7369L19.5 33Z" fill="#0e8a11"/>
    <path d="M19.5 33L24.2631 41.25H14.7369L19.5 33Z" fill="#0e8a11"/>
    <path d="M19.5 14L24.2631 23H14.7369L19.5 14Z" fill="#0e8a11"/>
    <path d="M15.5 23L20.2631 32H10.7369L15.5 23Z" fill="#0e8a11"/>
    <path d="M15 47L19.3301 55.25H10.6699L15 47Z" fill="#0e8a11"/>
    <path d="M15 47L19.3301 55.25H10.6699L15 47Z" fill="#0e8a11"/>
    <path d="M23 28L27.3301 37H18.6699L23 28Z" fill="#0e8a11"/>
    <path d="M15 28L19.3301 37H10.6699L15 28Z" fill="#0e8a11"/>
    <path d="M11.5 37L16.2631 46H6.73686L11.5 37Z" fill="#0e8a11"/>
    <path d="M23.5 58L28.2631 67H18.7369L23.5 58Z" fill="#0e8a11"/>
    <path d="M23.5 58L28.2631 67H18.7369L23.5 58Z" fill="#0e8a11"/>
    <path d="M23.5 40L28.2631 49H18.7369L23.5 40Z" fill="#0e8a11"/>
    <path d="M20 49L24.3301 58H15.6699L20 49Z" fill="#0e8a11"/>
</svg>
