<svg width="135" height="120" viewBox="0 0 135 120" fill="none" xmlns="http://www.w3.org/2000/svg">
    <path d="M98 51.1092L81.2862 119.109H42.5805L30 51.1092H65.8919H98Z" fill="#D9D9D9"/>
    <path d="M11 56.1092L16.1962 67.3592H5.80385L11 56.1092Z" fill="#0e8a11"/>
    <path d="M11 56.1092L16.1962 67.3592H5.80385L11 56.1092Z" fill="#0e8a11"/>
    <path d="M20 33.1092L25.1962 44.3592H14.8038L20 33.1092Z" fill="#0e8a11"/>
    <path d="M11 33.1092L16.1962 44.3592H5.80385L11 33.1092Z" fill="#0e8a11"/>
    <path d="M6 44.1092L11.1962 55.3592H0.803848L6 44.1092Z" fill="#0e8a11"/>
    <path d="M109.442 59.0811L96.7423 56.2306L103.21 48.4441L109.442 59.0811Z" fill="#0e8a11"/>
    <path d="M109.442 59.0811L96.7423 56.2306L103.21 48.4441L109.442 59.0811Z" fill="#0e8a11"/>
    <path d="M122.885 80.1073L110.185 77.2568L116.653 69.4703L122.885 80.1073Z" fill="#0e8a11"/>
    <path d="M128.86 72.9144L116.16 70.0639L122.628 62.2774L128.86 72.9144Z" fill="#0e8a11"/>
    <path d="M122.251 63.1967L109.551 60.3462L116.019 52.5597L122.251 63.1967Z" fill="#0e8a11"/>
    <path d="M111.286 33.9059L98.5857 31.0554L105.054 23.2689L111.286 33.9059Z" fill="#0e8a11"/>
    <path d="M111.286 33.9059L98.5857 31.0554L105.054 23.2689L111.286 33.9059Z" fill="#0e8a11"/>
    <path d="M124.728 54.9322L112.028 52.0817L118.496 44.2951L124.728 54.9322Z" fill="#0e8a11"/>
    <path d="M130.703 47.7393L118.003 44.8888L124.471 37.1023L130.703 47.7393Z" fill="#0e8a11"/>
    <path d="M124.094 38.0215L111.394 35.171L117.862 27.3845L124.094 38.0215Z" fill="#0e8a11"/>
    <path d="M99.649 78.7137L86.949 75.8632L93.4171 68.0766L99.649 78.7137Z" fill="#0e8a11"/>
    <path d="M99.649 78.7137L86.949 75.8632L93.4171 68.0766L99.649 78.7137Z" fill="#0e8a11"/>
    <path d="M113.092 99.7399L100.392 96.8894L106.86 89.1029L113.092 99.7399Z" fill="#0e8a11"/>
    <path d="M119.066 92.547L106.366 89.6966L112.835 81.91L119.066 92.547Z" fill="#0e8a11"/>
    <path d="M112.457 82.8293L99.7572 79.9788L106.225 72.1922L112.457 82.8293Z" fill="#0e8a11"/>
    <path d="M27.9922 33.3388L15.2923 30.4883L21.7603 22.7018L27.9922 33.3388Z" fill="#0e8a11"/>
    <path d="M27.9922 33.3388L15.2923 30.4883L21.7603 22.7018L27.9922 33.3388Z" fill="#0e8a11"/>
    <path d="M41.4347 54.365L28.7348 51.5145L35.2028 43.728L41.4347 54.365Z" fill="#0e8a11"/>
    <path d="M47.4096 47.1721L34.7096 44.3217L41.1777 36.5351L47.4096 47.1721Z" fill="#0e8a11"/>
    <path d="M40.8005 37.4544L28.1005 34.6039L34.5685 26.8174L40.8005 37.4544Z" fill="#0e8a11"/>
    <path d="M65.9643 32.2044L53.2643 29.3539L59.7324 21.5674L65.9643 32.2044Z" fill="#0e8a11"/>
    <path d="M65.9643 32.2044L53.2643 29.3539L59.7324 21.5674L65.9643 32.2044Z" fill="#0e8a11"/>
    <path d="M79.4067 53.2306L66.7067 50.3801L73.1747 42.5936L79.4067 53.2306Z" fill="#0e8a11"/>
    <path d="M85.3816 46.0377L72.6817 43.1873L79.1497 35.4007L85.3816 46.0377Z" fill="#0e8a11"/>
    <path d="M91.7939 54.7303L71.8703 40.1272L78.3383 32.3407L91.7939 54.7303Z" fill="#0e8a11"/>
    <path d="M54.4343 56.999L34.5107 42.396L40.9788 34.6094L54.4343 56.999Z" fill="#0e8a11"/>
    <path d="M71.8703 54.7303L51.9467 40.1272L58.4147 32.3407L71.8703 54.7303Z" fill="#0e8a11"/>
    <path d="M86.5508 32.3406L86.5509 12.888L73.0952 9.95103L86.5508 32.3406Z" fill="#0e8a11"/>
    <path d="M78.7724 36.32L66.0724 33.4695L72.5405 25.683L78.7724 36.32Z" fill="#0e8a11"/>
    <path d="M47.5906 33.9059L34.8907 31.0554L41.3587 23.2689L47.5906 33.9059Z" fill="#0e8a11"/>
    <path d="M47.5906 33.9059L34.8907 31.0554L41.3587 23.2689L47.5906 33.9059Z" fill="#0e8a11"/>
    <path d="M61.0331 54.9322L48.3332 52.0817L54.8012 44.2951L61.0331 54.9322Z" fill="#0e8a11"/>
    <path d="M67.0081 47.7393L54.3081 44.8888L60.7762 37.1023L67.0081 47.7393Z" fill="#0e8a11"/>
    <path d="M60.3989 38.0215L47.6989 35.171L54.1669 27.3845L60.3989 38.0215Z" fill="#0e8a11"/>
    <path d="M83.1128 28.8013L70.4129 25.9508L76.8809 18.1643L83.1128 28.8013Z" fill="#0e8a11"/>
    <path d="M83.1128 28.8013L70.4129 25.9508L76.8809 18.1643L83.1128 28.8013Z" fill="#0e8a11"/>
    <path d="M96.5553 49.8275L83.8554 46.9771L90.3234 39.1905L96.5553 49.8275Z" fill="#0e8a11"/>
    <path d="M102.53 42.6346L89.8302 39.7841L96.2983 31.9975L102.53 42.6346Z" fill="#0e8a11"/>
    <path d="M52.6713 13.4872L39.9713 10.6367L46.4394 2.8502L52.6713 13.4872Z" fill="#0e8a11"/>
    <path d="M52.6713 13.4872L39.9713 10.6367L46.4394 2.8502L52.6713 13.4872Z" fill="#0e8a11"/>
    <path d="M72.0887 27.3206L59.3887 24.4701L65.8567 16.6836L72.0887 27.3206Z" fill="#0e8a11"/>
    <path d="M65.4795 17.6028L52.7796 14.7523L59.2476 6.9658L65.4795 17.6028Z" fill="#0e8a11"/>
    <path d="M43.9159 22.2159L31.216 19.3654L37.684 11.5788L43.9159 22.2159Z" fill="#0e8a11"/>
    <path d="M95.9211 32.9169L83.2211 30.0664L89.6891 22.2799L95.9211 32.9169Z" fill="#0e8a11"/>
    <path d="M21 71.1091L26.1962 82.3591H15.8038L21 71.1091Z" fill="#0e8a11"/>
    <path d="M21 71.1091L26.1962 82.3591H15.8038L21 71.1091Z" fill="#0e8a11"/>
    <path d="M31 48.1092L36.1962 59.3592H25.8038L31 48.1092Z" fill="#0e8a11"/>
    <path d="M21 48.1092L26.1962 59.3592H15.8038L21 48.1092Z" fill="#0e8a11"/>
    <path d="M16.5 59.1092L22.1292 70.3592H10.8708L16.5 59.1092Z" fill="#0e8a11"/>
    <path d="M15.5 88.1092L21.1292 98.6092H9.87083L15.5 88.1092Z" fill="#0e8a11"/>
    <path d="M15.5 88.1092L21.1292 98.6092H9.87083L15.5 88.1092Z" fill="#0e8a11"/>
    <path d="M25 65.1092L30.1962 75.6092H19.8038L25 65.1092Z" fill="#0e8a11"/>
    <path d="M15.5 65.1092L21.1292 75.6092H9.87083L15.5 65.1092Z" fill="#0e8a11"/>
    <path d="M11 76.1092L16.1962 86.6092H5.80385L11 76.1092Z" fill="#0e8a11"/>
    <path d="M26 102.109L31.1962 113.359H20.8038L26 102.109Z" fill="#0e8a11"/>
    <path d="M26 102.109L31.1962 113.359H20.8038L26 102.109Z" fill="#0e8a11"/>
    <path d="M26 79.1092L31.1962 91.1092H20.8038L26 79.1092Z" fill="#0e8a11"/>
    <path d="M21 90.1092L26.1962 101.359H15.8038L21 90.1092Z" fill="#0e8a11"/>
</svg>
