<svg width="131" height="136" viewBox="0 0 131 136" fill="none" xmlns="http://www.w3.org/2000/svg">
    <path d="M93.9999 67.0861L77.2861 135.086H38.5804L25.9999 67.0861H61.8918H93.9999Z" fill="#D9D9D9"/>
    <path d="M18.9999 20L24.1961 31.25H13.8038L18.9999 20Z" fill="#0e8a11"/>
    <path d="M36.9999 6L42.1961 17.25H31.8038L36.9999 6Z" fill="#0e8a11"/>
    <path d="M15.9999 49.0861L21.1961 60.3361H10.8038L15.9999 49.0861Z" fill="#0e8a11"/>
    <path d="M6.99994 49.0861L12.1961 60.3361H1.80379L6.99994 49.0861Z" fill="#0e8a11"/>
    <path d="M23.9999 54L29.1961 65.25H18.8038L23.9999 54Z" fill="#0e8a11"/>
    <path d="M105.442 75.0579L92.7422 72.2075L99.2103 64.4209L105.442 75.0579Z" fill="#0e8a11"/>
    <path d="M105.442 75.0579L92.7422 72.2075L99.2103 64.4209L105.442 75.0579Z" fill="#0e8a11"/>
    <path d="M118.251 79.1735L105.551 76.3231L112.019 68.5365L118.251 79.1735Z" fill="#0e8a11"/>
    <path d="M99.3556 58.4872L86.6556 55.6368L93.1237 47.8502L99.3556 58.4872Z" fill="#0e8a11"/>
    <path d="M51.3556 40.4872L38.6556 37.6368L45.1237 29.8502L51.3556 40.4872Z" fill="#0e8a11"/>
    <path d="M107.286 49.8828L94.5857 47.0323L101.054 39.2458L107.286 49.8828Z" fill="#0e8a11"/>
    <path d="M107.286 49.8828L94.5857 47.0323L101.054 39.2458L107.286 49.8828Z" fill="#0e8a11"/>
    <path d="M120.728 70.909L108.028 68.0585L114.496 60.272L120.728 70.909Z" fill="#0e8a11"/>
    <path d="M126.703 63.7161L114.003 60.8657L120.471 53.0791L126.703 63.7161Z" fill="#0e8a11"/>
    <path d="M120.094 53.9984L107.394 51.1479L113.862 43.3614L120.094 53.9984Z" fill="#0e8a11"/>
    <path d="M17.3556 49.4873L4.65561 46.6368L11.1237 38.8502L17.3556 49.4873Z" fill="#0e8a11"/>
    <path d="M16.3556 38.4873L3.65561 35.6368L10.1237 27.8502L16.3556 38.4873Z" fill="#0e8a11"/>
    <path d="M37.4347 70.3419L24.7347 67.4914L31.2028 59.7049L37.4347 70.3419Z" fill="#0e8a11"/>
    <path d="M43.4095 63.149L30.7096 60.2985L37.1776 52.512L43.4095 63.149Z" fill="#0e8a11"/>
    <path d="M33.3556 56.4873L20.6556 53.6368L27.1237 45.8502L33.3556 56.4873Z" fill="#0e8a11"/>
    <path d="M61.9642 48.1812L49.2643 45.3308L55.7323 37.5442L61.9642 48.1812Z" fill="#0e8a11"/>
    <path d="M61.9642 48.1812L49.2643 45.3308L55.7323 37.5442L61.9642 48.1812Z" fill="#0e8a11"/>
    <path d="M75.4066 69.2075L62.7066 66.357L69.1747 58.5705L75.4066 69.2075Z" fill="#0e8a11"/>
    <path d="M81.3816 62.0146L68.6816 59.1641L75.1497 51.3776L81.3816 62.0146Z" fill="#0e8a11"/>
    <path d="M87.7939 70.7071L67.8703 56.1041L74.3383 48.3175L87.7939 70.7071Z" fill="#0e8a11"/>
    <path d="M50.4343 72.9759L30.5107 58.3728L36.9788 50.5863L50.4343 72.9759Z" fill="#0e8a11"/>
    <path d="M67.8703 70.7071L47.9467 56.1041L54.4147 48.3175L67.8703 70.7071Z" fill="#0e8a11"/>
    <path d="M82.5508 48.3175L82.5509 28.8649L69.0952 25.9279L82.5508 48.3175Z" fill="#0e8a11"/>
    <path d="M114.356 42.4873L101.656 39.6368L108.124 31.8502L114.356 42.4873Z" fill="#0e8a11"/>
    <path d="M43.5906 49.8828L30.8906 47.0323L37.3586 39.2458L43.5906 49.8828Z" fill="#0e8a11"/>
    <path d="M43.5906 49.8828L30.8906 47.0323L37.3586 39.2458L43.5906 49.8828Z" fill="#0e8a11"/>
    <path d="M57.0331 70.909L44.3331 68.0585L50.8011 60.272L57.0331 70.909Z" fill="#0e8a11"/>
    <path d="M63.008 63.7161L50.3081 60.8657L56.7761 53.0791L63.008 63.7161Z" fill="#0e8a11"/>
    <path d="M56.3988 53.9984L43.6988 51.1479L50.1669 43.3614L56.3988 53.9984Z" fill="#0e8a11"/>
    <path d="M79.1128 44.7782L66.4128 41.9277L72.8809 34.1411L79.1128 44.7782Z" fill="#0e8a11"/>
    <path d="M79.1128 44.7782L66.4128 41.9277L72.8809 34.1411L79.1128 44.7782Z" fill="#0e8a11"/>
    <path d="M92.5553 65.8044L79.8553 62.9539L86.3234 55.1674L92.5553 65.8044Z" fill="#0e8a11"/>
    <path d="M48.6713 29.4641L35.9713 26.6136L42.4393 18.8271L48.6713 29.4641Z" fill="#0e8a11"/>
    <path d="M48.6713 29.4641L35.9713 26.6136L42.4393 18.8271L48.6713 29.4641Z" fill="#0e8a11"/>
    <path d="M68.0886 43.2974L55.3886 40.447L61.8567 32.6604L68.0886 43.2974Z" fill="#0e8a11"/>
    <path d="M61.4795 33.5797L48.7795 30.7292L55.2476 22.9427L61.4795 33.5797Z" fill="#0e8a11"/>
    <path d="M37.3556 31.4873L24.6556 28.6368L31.1237 20.8502L37.3556 31.4873Z" fill="#0e8a11"/>
    <path d="M91.921 48.8938L79.221 46.0433L85.6891 38.2567L91.921 48.8938Z" fill="#0e8a11"/>
    <path d="M26.9999 64.0861L32.1961 75.3361H21.8038L26.9999 64.0861Z" fill="#0e8a11"/>
    <path d="M61.9999 0L67.1961 11.25H56.8038L61.9999 0Z" fill="#0e8a11"/>
    <path d="M91.9999 14L97.1961 25.25H86.8038L91.9999 14Z" fill="#0e8a11"/>
    <path d="M65.9999 16L71.1961 27.25H60.8038L65.9999 16Z" fill="#0e8a11"/>
    <path d="M24.4723 30.281L31.1118 34.4736L30.7699 42.7483L23.801 46.5295L17.1678 42.1864L17.5096 33.9117L24.4723 30.281Z" fill="#C91A1A" fill-opacity="0.6"/>
    <path d="M23.4877 34.9371L26.4332 36.1762L26.56 39.0652L23.7367 40.61L20.7888 39.3184L20.662 36.4294L23.4877 34.9371Z" fill="#C6C91A" fill-opacity="0.8"/>
    <path d="M105.472 50.281L112.112 54.4736L111.77 62.7483L104.801 66.5295L98.1677 62.1864L98.5095 53.9117L105.472 50.281Z" fill="#C91A1A" fill-opacity="0.6"/>
    <path d="M104.488 54.9371L107.433 56.1762L107.56 59.0652L104.737 60.61L101.789 59.3184L101.662 56.4294L104.488 54.9371Z" fill="#C6C91A" fill-opacity="0.8"/>
    <path d="M92.4723 27.281L99.1118 31.4736L98.7699 39.7483L91.801 43.5295L85.1678 39.1864L85.5096 30.9117L92.4723 27.281Z" fill="#C91A1A" fill-opacity="0.6"/>
    <path d="M91.4877 31.9371L94.4332 33.1762L94.56 36.0652L91.7367 37.61L88.7888 36.3184L88.662 33.4294L91.4877 31.9371Z" fill="#C6C91A" fill-opacity="0.8"/>
    <path d="M76.4723 8.28097L83.1118 12.4736L82.7699 20.7483L75.801 24.5295L69.1678 20.1864L69.5096 11.9117L76.4723 8.28097Z" fill="#C91A1A" fill-opacity="0.6"/>
    <path d="M75.4877 12.9371L78.4332 14.1762L78.56 17.0652L75.7367 18.61L72.7888 17.3184L72.662 14.4294L75.4877 12.9371Z" fill="#C6C91A" fill-opacity="0.8"/>
    <path d="M65.4723 42.281L72.1118 46.4736L71.7699 54.7483L64.801 58.5295L58.1678 54.1864L58.5096 45.9117L65.4723 42.281Z" fill="#C91A1A" fill-opacity="0.6"/>
    <path d="M64.4877 46.9371L67.4332 48.1762L67.56 51.0652L64.7367 52.61L61.7888 51.3184L61.662 48.4294L64.4877 46.9371Z" fill="#C6C91A" fill-opacity="0.8"/>
    <path d="M52.4723 9.28097L59.1118 13.4736L58.7699 21.7483L51.801 25.5295L45.1678 21.1864L45.5096 12.9117L52.4723 9.28097Z" fill="#C91A1A" fill-opacity="0.6"/>
    <path d="M51.4877 13.9371L54.4332 15.1762L54.56 18.0652L51.7367 19.61L48.7888 18.3184L48.662 15.4294L51.4877 13.9371Z" fill="#C6C91A" fill-opacity="0.8"/>
</svg>
