<svg width="73" height="162" viewBox="0 0 73 162" fill="none" xmlns="http://www.w3.org/2000/svg">
    <path d="M35 57.9999H37.8209L41 109H35L35 57.9999Z" fill="#6F3E04" fill-opacity="0.6"/>
    <path d="M49.8985 42.2063L38.1607 39.907L44.1387 33.6261L49.8985 42.2063Z" fill="#0e8a11"/>
    <path d="M49.8985 42.2063L38.1607 39.907L44.1387 33.6261L49.8985 42.2063Z" fill="#0e8a11"/>
    <path d="M62.3227 59.1669L50.5849 56.8676L56.5629 50.5867L62.3227 59.1669Z" fill="#0e8a11"/>
    <path d="M67.845 53.3649L56.1071 51.0655L62.0851 44.7846L67.845 53.3649Z" fill="#0e8a11"/>
    <path d="M61.7365 45.5262L49.9986 43.2269L55.9767 36.946L61.7365 45.5262Z" fill="#0e8a11"/>
    <path d="M51.6022 21.8991L39.8643 19.5998L45.8423 13.3189L51.6022 21.8991Z" fill="#0e8a11"/>
    <path d="M51.6022 21.8991L39.8643 19.5998L45.8423 13.3189L51.6022 21.8991Z" fill="#0e8a11"/>
    <path d="M64.0262 38.8596L52.2884 36.5603L58.2664 30.2794L64.0262 38.8596Z" fill="#0e8a11"/>
    <path d="M69.5486 33.0576L57.8107 30.7583L63.7888 24.4774L69.5486 33.0576Z" fill="#0e8a11"/>
    <path d="M63.44 25.2189L51.7021 22.9196L57.6802 16.6386L63.44 25.2189Z" fill="#0e8a11"/>
    <path d="M57.597 51.5982L45.8592 49.2989L51.8372 43.018L57.597 51.5982Z" fill="#0e8a11"/>
    <path d="M52.685 61.3626L40.9471 59.0633L46.9252 52.7824L52.685 61.3626Z" fill="#0e8a11"/>
    <path d="M43.51 28.9399L31.7721 26.6406L37.7502 20.3597L43.51 28.9399Z" fill="#0e8a11"/>
    <path d="M24 28.9999L29.1962 37.9999H18.8038L24 28.9999Z" fill="#0e8a11"/>
    <path d="M24 28.9999L29.1962 37.9999H18.8038L24 28.9999Z" fill="#0e8a11"/>
    <path d="M32.5 11L37.2631 20H27.7369L32.5 11Z" fill="#0e8a11"/>
    <path d="M24 11L29.1962 20H18.8038L24 11Z" fill="#0e8a11"/>
    <path d="M19.5 18.9999L24.2631 28.7499H14.7369L19.5 18.9999Z" fill="#0e8a11"/>
    <path d="M40.0493 10.8794L28.3114 8.58004L34.2895 2.29911L40.0493 10.8794Z" fill="#0e8a11"/>
    <path d="M40.0493 10.8794L28.3114 8.58004L34.2895 2.29911L40.0493 10.8794Z" fill="#0e8a11"/>
    <path d="M33.5 40.9999L38.2631 49.9999H28.7369L33.5 40.9999Z" fill="#0e8a11"/>
    <path d="M33.5 40.9999L38.2631 49.9999H28.7369L33.5 40.9999Z" fill="#0e8a11"/>
    <path d="M33.5 22.9999L38.2631 31.9999H28.7369L33.5 22.9999Z" fill="#0e8a11"/>
    <path d="M29 31.9999L34.1962 40.9999H23.8038L29 31.9999Z" fill="#0e8a11"/>
    <path d="M28.5 54.9999L33.2631 63.2499H23.7369L28.5 54.9999Z" fill="#0e8a11"/>
    <path d="M28.5 54.9999L33.2631 63.2499H23.7369L28.5 54.9999Z" fill="#0e8a11"/>
    <path d="M37.5 35.9999L42.2631 45.7499H32.7369L37.5 35.9999Z" fill="#0e8a11"/>
    <path d="M28.5 35.9999L33.2631 45.7499H23.7369L28.5 35.9999Z" fill="#0e8a11"/>
    <path d="M24.5 44.9999L29.2631 54.7499H19.7369L24.5 44.9999Z" fill="#0e8a11"/>
    <path d="M37.5 48.9999L42.2631 57.9999H32.7369L37.5 48.9999Z" fill="#0e8a11"/>
    <path d="M34.5 57.9999L39.2631 66.2499H29.7369L34.5 57.9999Z" fill="#0e8a11"/>
    <path d="M68 107L52.2693 162H15.8404L4 107H37.7806H68Z" fill="#D9D9D9"/>
    <path d="M35.7964 44.9514L24.0585 42.6521L30.0366 36.3712L35.7964 44.9514Z" fill="#0e8a11"/>
    <path d="M35.7964 44.9514L24.0585 42.6521L30.0366 36.3712L35.7964 44.9514Z" fill="#0e8a11"/>
    <path d="M47.6343 48.2713L35.8964 45.972L41.8744 39.6911L47.6343 48.2713Z" fill="#0e8a11"/>
    <path d="M37.5 24.6441L25.7622 22.3448L31.7402 16.0639L37.5 24.6441Z" fill="#0e8a11"/>
    <path d="M37.5 24.6441L25.7622 22.3448L31.7402 16.0639L37.5 24.6441Z" fill="#0e8a11"/>
    <path d="M49.9241 41.6048L38.1863 39.3054L44.1643 33.0245L49.9241 41.6048Z" fill="#0e8a11"/>
    <path d="M55.4465 35.8027L43.7087 33.5034L49.6867 27.2224L55.4465 35.8027Z" fill="#0e8a11"/>
    <path d="M49.3379 27.964L37.6 25.6647L43.5781 19.3838L49.3379 27.964Z" fill="#0e8a11"/>
    <path d="M29.4079 31.685L17.67 29.3857L23.6481 23.1048L29.4079 31.685Z" fill="#0e8a11"/>
    <path d="M10 31.9999L15.1962 40.9999H4.80385L10 31.9999Z" fill="#0e8a11"/>
    <path d="M10 31.9999L15.1962 40.9999H4.80385L10 31.9999Z" fill="#0e8a11"/>
    <path d="M18.5 14L23.2631 23H13.7369L18.5 14Z" fill="#0e8a11"/>
    <path d="M10 14L15.1962 23H4.80385L10 14Z" fill="#0e8a11"/>
    <path d="M5.5 22.9999L10.2631 31.2499H0.73686L5.5 22.9999Z" fill="#0e8a11"/>
    <path d="M25.9472 13.6245L14.2093 11.3252L20.1874 5.04423L25.9472 13.6245Z" fill="#0e8a11"/>
    <path d="M25.9472 13.6245L14.2093 11.3252L20.1874 5.04423L25.9472 13.6245Z" fill="#0e8a11"/>
    <path d="M19.5 43.9999L24.2631 52.9999H14.7369L19.5 43.9999Z" fill="#0e8a11"/>
    <path d="M19.5 43.9999L24.2631 52.9999H14.7369L19.5 43.9999Z" fill="#0e8a11"/>
    <path d="M19.5 25.9999L24.2631 34.2499H14.7369L19.5 25.9999Z" fill="#0e8a11"/>
    <path d="M15.5 33.9999L20.2631 42.9999H10.7369L15.5 33.9999Z" fill="#0e8a11"/>
    <path d="M23 39.9999L28.1962 48.2499H17.8038L23 39.9999Z" fill="#0e8a11"/>
    <path d="M14.5 39.9999L19.2631 48.2499H9.73686L14.5 39.9999Z" fill="#0e8a11"/>
</svg>
